<svg width="32" height="25" viewBox="0 0 32 25" fill="none" xmlns="http://www.w3.org/2000/svg">
	<path fill-rule="evenodd" clip-rule="evenodd" d="M13.6432 23.9156C14.2525 23.3193 14.7513 22.73 14.7513 22.6061C14.7513 22.4822 13.0035 20.6905 10.867 18.6241C8.73058 16.5579 6.94356 14.7586 6.8959 14.6253C6.84165 14.4741 11.5328 14.3588 19.4045 14.3178L32 14.2521L32 12.4818L32 10.7116L19.4045 10.6458C11.6431 10.6053 6.84244 10.4885 6.8959 10.3413C6.94356 10.2098 8.73058 8.40492 10.867 6.33069C13.0035 4.25621 14.7513 2.45384 14.7513 2.32538C14.7513 1.87725 12.4389 -0.0841883 12.0131 0.00280778C11.7772 0.0508558 8.91545 2.86505 5.65373 6.25659C0.395377 11.7244 -0.238219 12.473 0.0614616 12.8654C1.18645 14.3393 11.7827 25 12.1224 25C12.3494 25 13.0335 24.5119 13.6432 23.9156Z" fill="#C2C6CB" />
	<path fill-rule="evenodd" clip-rule="evenodd" d="M13.6432 23.9156C14.2525 23.3193 14.7513 22.73 14.7513 22.6061C14.7513 22.4822 13.0035 20.6905 10.867 18.6241C8.73058 16.5579 6.94356 14.7586 6.8959 14.6253C6.84165 14.4741 11.5328 14.3588 19.4045 14.3178L32 14.2521L32 12.4818L32 10.7116L19.4045 10.6458C11.6431 10.6053 6.84244 10.4885 6.8959 10.3413C6.94356 10.2098 8.73058 8.40492 10.867 6.33069C13.0035 4.25621 14.7513 2.45384 14.7513 2.32538C14.7513 1.87725 12.4389 -0.0841883 12.0131 0.00280778C11.7772 0.0508558 8.91545 2.86505 5.65373 6.25659C0.395377 11.7244 -0.238219 12.473 0.0614616 12.8654C1.18645 14.3393 11.7827 25 12.1224 25C12.3494 25 13.0335 24.5119 13.6432 23.9156Z" fill="#4D4E4F" />
</svg>
