<svg width="22" height="18" viewBox="0 0 22 18" fill="none" xmlns="http://www.w3.org/2000/svg">
	<path fill-rule="evenodd" clip-rule="evenodd" d="M12.6203 1.23739C12.2014 1.64289 11.8585 2.04358 11.8585 2.12784C11.8585 2.2121 13.0601 3.43049 14.5289 4.83564C15.9977 6.24061 17.2263 7.46415 17.2591 7.55478C17.2964 7.65762 14.0712 7.73603 8.65941 7.76389L0 7.8086L0 9.01237L0 10.2161L8.65941 10.2609C13.9954 10.2884 17.2958 10.3678 17.2591 10.4679C17.2263 10.5573 15.9977 11.7847 14.5289 13.1951C13.0601 14.6058 11.8585 15.8314 11.8585 15.9187C11.8585 16.2235 13.4482 17.5572 13.741 17.4981C13.9032 17.4654 15.8706 15.5518 18.1131 13.2455C21.7282 9.52742 22.1638 9.01839 21.9577 8.7515C21.1843 7.74928 13.8994 0.5 13.6659 0.5C13.5098 0.5 13.0394 0.831896 12.6203 1.23739Z" fill="#767779" />
</svg>
